<?xml version="1.0" encoding="UTF-8"?>
<svg width="185px" height="24px" viewBox="0 0 185 24" version="1.1" xmlns="http://www.w3.org/2000/svg" xmlns:xlink="http://www.w3.org/1999/xlink">
    <title>D1420ED9-133C-411A-B53E-DA51B5837852</title>
    <defs>
        <polygon id="path-1" points="0.0681643611 0.0278250932 12.9493346 0.0278250932 12.9493346 11.9927672 0.0681643611 11.9927672 0.0681643611 0.0278250932"></polygon>
    </defs>
    <g id="Page-1" stroke="none" stroke-width="1" fill="none" fill-rule="evenodd">
        <g id="120-FE-TASK-Audit-list" transform="translate(-20.000000, -20.000000)">
            <g id="sidebar">
                <g id="logo/cloud" transform="translate(20.000000, 20.000000)">
                    <g id="logo">
                        <path d="M57.15625,7.0859375 L57.15625,18 C57.15625,19.203131 56.9296898,20.0338519 56.4765625,20.4921875 C56.0234352,20.9505231 55.4869823,21.1796875 54.8671875,21.1796875 C54.7213534,21.1796875 54.5520843,21.1692709 54.359375,21.1484375 L54.28125,20.3515625 C54.4583342,20.3932294 54.6249992,20.4140625 54.78125,20.4140625 C55.8020884,20.4140625 56.3125,19.6849031 56.3125,18.2265625 L56.3125,7.0859375 L57.15625,7.0859375 Z M66.2084374,7.0078125 L71.2474999,18 L70.3646874,18 L68.6381249,14.2265625 L63.3099999,14.2265625 L61.5834374,18 L60.7006249,18 L65.7396874,7.0078125 L66.2084374,7.0078125 Z M68.3178124,13.5234375 L65.9662499,8.3828125 L63.6303124,13.5234375 L68.3178124,13.5234375 Z M81.1199999,7.0859375 L81.1199999,7.7890625 L77.0262499,7.7890625 L77.0262499,18 L76.1746874,18 L76.1746874,7.7890625 L72.0809374,7.7890625 L72.0809374,7.0859375 L81.1199999,7.0859375 Z M92.3987498,7.0859375 L93.9612498,7.0859375 L93.9612498,18 L92.3987498,18 L92.3987498,13.25 L86.2659373,13.25 L86.2659373,18 L84.7034373,18 L84.7034373,7.0859375 L86.2659373,7.0859375 L86.2659373,11.8046875 L92.3987498,11.8046875 L92.3987498,7.0859375 Z M98.6774998,7.0859375 L104.865,7.0859375 L104.865,8.4765625 L100.24,8.4765625 L100.24,11.8046875 L104.70875,11.8046875 L104.70875,13.203125 L100.24,13.203125 L100.24,16.59375 L105.013437,16.59375 L105.013437,17.984375 L98.6774998,17.984375 L98.6774998,7.0859375 Z M114.58125,6.9453125 C115.711464,6.9453125 116.728381,7.17838309 117.632031,7.64453125 C118.535681,8.11067941 119.255726,8.7825477 119.792187,9.66015625 C120.328648,10.5377648 120.596875,11.4999948 120.596875,12.546875 C120.596875,13.5677134 120.335159,14.5143186 119.811718,15.3867188 C119.288278,16.2591189 118.569536,16.9361955 117.655468,17.4179688 C116.741401,17.899742 115.711464,18.140625 114.565625,18.140625 C113.435411,18.140625 112.408077,17.8958358 111.483593,17.40625 C110.55911,16.9166642 109.839065,16.2434939 109.323437,15.3867188 C108.80781,14.5299436 108.55,13.5833385 108.55,12.546875 C108.55,11.54687 108.80781,10.6067752 109.323437,9.7265625 C109.839065,8.84634977 110.55,8.16276285 111.45625,7.67578125 C112.362504,7.18879965 113.40416,6.9453125 114.58125,6.9453125 Z M110.729687,12.546875 C110.729687,13.270837 110.893748,13.9218721 111.221875,14.5 C111.550001,15.0781279 112.007028,15.5260401 112.592968,15.84375 C113.178909,16.1614599 113.841663,16.3203125 114.58125,16.3203125 C115.701047,16.3203125 116.621611,15.9687535 117.342968,15.265625 C118.064326,14.5624965 118.425,13.6562555 118.425,12.546875 C118.425,11.822913 118.262241,11.1705758 117.936718,10.5898438 C117.611196,10.0091117 117.152867,9.55989742 116.561718,9.2421875 C115.97057,8.92447758 115.305212,8.765625 114.565625,8.765625 C113.826038,8.765625 113.16068,8.92577965 112.569531,9.24609375 C111.978382,9.56640785 111.52396,10.01432 111.20625,10.5898438 C110.88854,11.1653675 110.729687,11.8177047 110.729687,12.546875 Z M126.735,7.0859375 L133.219375,14.703125 L133.219375,7.0859375 L135.281875,7.0859375 L135.281875,18 L133.469375,18 L126.945937,10.2578125 L126.945937,18 L124.883437,18 L124.883437,7.0859375 L126.735,7.0859375 Z" id="JATHEON" fill="#747978"></path>
                        <path d="M145.331055,7.09082031 C145.718426,7.09082031 146.097654,7.13476519 146.46875,7.22265625 C146.839846,7.31054731 147.240232,7.4602854 147.669922,7.671875 L147.669922,8.91210938 C147.249998,8.67122275 146.861818,8.49707085 146.505371,8.38964844 C146.148924,8.28222603 145.77702,8.22851562 145.389648,8.22851562 C144.90462,8.22851562 144.466799,8.32861228 144.076172,8.52880859 C143.685545,8.72900491 143.382,9.01139141 143.165527,9.37597656 C142.949055,9.74056172 142.84082,10.1458311 142.84082,10.5917969 C142.84082,11.0475283 142.948241,11.4560529 143.163086,11.8173828 C143.377931,12.1787127 143.680662,12.4578441 144.071289,12.6547852 C144.461916,12.8517262 144.901365,12.9501953 145.389648,12.9501953 C145.763999,12.9501953 146.121255,12.8964849 146.461426,12.7890625 C146.801597,12.6816401 147.230466,12.4879571 147.748047,12.2080078 L147.748047,13.4482422 C147.305336,13.6793631 146.898439,13.8437495 146.527344,13.9414062 C146.156248,14.039063 145.72331,14.0878906 145.228516,14.0878906 C144.509111,14.0878906 143.866214,13.9446629 143.299805,13.6582031 C142.733396,13.3717434 142.28825,12.9591498 141.964355,12.4204102 C141.640461,11.8816705 141.478516,11.2916699 141.478516,10.6503906 C141.478516,9.96353823 141.645343,9.34668242 141.979004,8.79980469 C142.312664,8.25292695 142.771644,7.83138169 143.355957,7.53515625 C143.94027,7.23893081 144.598629,7.09082031 145.331055,7.09082031 Z M152.246289,7.17871094 L152.246289,12.9697266 L155.556836,12.9697266 L155.556836,14 L150.92793,14 L150.92793,7.17871094 L152.246289,7.17871094 Z M161.681055,7.09082031 C162.387438,7.09082031 163.023011,7.23648943 163.587793,7.52783203 C164.152574,7.81917463 164.602602,8.23909231 164.937891,8.78759766 C165.273179,9.336103 165.44082,9.93749673 165.44082,10.5917969 C165.44082,11.2298209 165.277248,11.8214491 164.950098,12.3666992 C164.622948,12.9119493 164.173733,13.3351222 163.602441,13.6362305 C163.031149,13.9373387 162.387438,14.0878906 161.671289,14.0878906 C160.964905,14.0878906 160.322822,13.9348974 159.74502,13.6289062 C159.167217,13.3229151 158.717189,12.9021837 158.394922,12.3666992 C158.072655,11.8312148 157.911523,11.2395866 157.911523,10.5917969 C157.911523,9.96679375 158.072655,9.37923452 158.394922,8.82910156 C158.717189,8.2789686 159.161521,7.85172678 159.72793,7.54736328 C160.294339,7.24299978 160.945374,7.09082031 161.681055,7.09082031 Z M159.273828,10.5917969 C159.273828,11.0442731 159.376366,11.4511701 159.581445,11.8125 C159.786524,12.1738299 160.072166,12.453775 160.438379,12.6523438 C160.804592,12.8509125 161.218813,12.9501953 161.681055,12.9501953 C162.380928,12.9501953 162.95628,12.7304709 163.407129,12.2910156 C163.857978,11.8515603 164.083398,11.2851597 164.083398,10.5917969 C164.083398,10.1393207 163.981674,9.73160989 163.778223,9.36865234 C163.574771,9.0056948 163.288316,8.72493589 162.918848,8.52636719 C162.54938,8.32779849 162.133531,8.22851562 161.671289,8.22851562 C161.209047,8.22851562 160.793198,8.32861228 160.42373,8.52880859 C160.054262,8.72900491 159.770248,9.00895002 159.57168,9.36865234 C159.373111,9.72835466 159.273828,10.1360654 159.273828,10.5917969 Z M169.870703,7.17871094 L169.870703,11.1484375 C169.870703,11.5553406 169.931738,11.8792306 170.053809,12.1201172 C170.17588,12.3610038 170.375259,12.5595695 170.651953,12.7158203 C170.928647,12.8720711 171.25091,12.9501953 171.61875,12.9501953 C172.022398,12.9501953 172.365005,12.8761401 172.646582,12.7280273 C172.928159,12.5799146 173.134049,12.3780937 173.264258,12.1225586 C173.394467,11.8670235 173.45957,11.5130231 173.45957,11.0605469 L173.45957,7.17871094 L174.77793,7.17871094 L174.77793,11.2314453 C174.77793,12.1494187 174.502867,12.854978 173.952734,13.3481445 C173.402601,13.8413111 172.624614,14.0878906 171.61875,14.0878906 C170.987236,14.0878906 170.439553,13.9755871 169.975684,13.7509766 C169.511814,13.5263661 169.157814,13.2016623 168.913672,12.7768555 C168.66953,12.3520487 168.547461,11.853193 168.547461,11.2802734 L168.547461,7.17871094 L169.870703,7.17871094 Z M181.014453,7.17871094 C181.724092,7.17871094 182.355596,7.32356626 182.908984,7.61328125 C183.462373,7.90299624 183.892056,8.30989321 184.198047,8.83398438 C184.504038,9.35807554 184.657031,9.94726235 184.657031,10.6015625 C184.657031,11.2688835 184.503224,11.8605117 184.195605,12.3764648 C183.887987,12.8924179 183.450979,13.2919908 182.88457,13.5751953 C182.318161,13.8583999 181.668754,14 180.936328,14 L178.158008,14 L178.158008,7.17871094 L181.014453,7.17871094 Z M180.877734,12.9697266 C181.606905,12.9697266 182.192023,12.750816 182.633105,12.3129883 C183.074188,11.8751606 183.294727,11.3014358 183.294727,10.5917969 C183.294727,9.85611611 183.072561,9.27506724 182.628223,8.84863281 C182.183884,8.42219839 181.585746,8.20898438 180.833789,8.20898438 L179.476367,8.20898438 L179.476367,12.9697266 L180.877734,12.9697266 Z" id="CLOUD" fill="#00A88D"></path>
                        <g id="znak">
                            <g id="Group-3" transform="translate(33.000000, 0.000000)">
                                <mask id="mask-2" fill="white">
                                    <use xlink:href="#path-1"></use>
                                </mask>
                                <g id="Clip-2"></g>
                                <path d="M12.9493346,7.58332621 C12.9481387,7.55884621 12.9493346,7.55124373 12.9432056,7.50866981 C12.8376676,6.78506534 12.4962387,6.33013267 12.2939824,5.96278062 C11.8546393,5.1649759 10.8018005,3.93413366 9.06087178,3.24884571 C7.09556267,2.47552099 5.44896041,1.23023404 4.97971988,0.88599354 C4.52109294,0.549507578 3.5622816,-0.254227081 3.49949695,0.129090186 C3.43686178,0.512559503 3.56885904,2.5462241 4.74995794,3.89657739 C5.91266992,5.22564373 8.15034483,4.68556323 8.30730646,4.87729789 C8.4642681,5.0688805 8.22658334,5.27688447 7.49334829,5.3635528 C7.2443025,5.39289839 6.6091311,5.37769342 5.22756977,5.44170634 C3.8464569,5.5058713 3.50622387,6.79099528 2.84683553,6.88693863 C2.18759668,6.98257789 1.18169685,7.08049789 0.585093167,7.14435876 C-0.0115105196,7.20837168 0.035129508,7.4679205 0.114058786,7.83922584 C0.211076023,8.29537491 1.38514903,9.3525764 3.54434313,9.5698554 C6.43049381,9.86011826 7.11439806,8.96408944 7.24011686,9.02810236 C7.36568616,9.09165913 7.89920622,9.82636323 7.08315523,11.3269416 C6.93576078,11.5977421 6.70166372,11.8159334 6.41823586,11.9927672 C10.2466048,11.4449322 12.9493346,9.23869118 12.9493346,7.58332621" id="Fill-1" fill="#CF202E" mask="url(#mask-2)"></path>
                            </g>
                            <path d="M45.403522,23.2398802 L45.9387801,23.7848069 L45.8368982,24 L43.2549316,24 L45.403522,23.2398802 Z M42.1262187,22.8336865 L43.9333384,23.2106103 L45.0419469,23.2241999 L42.8715894,23.9919359 L41.4987529,23.0487302 L42.1262187,22.8336865 Z M41.3394301,23.1042831 L42.5704784,23.9499725 L40.0958355,23.5315332 L41.3394301,23.1042831 Z M26.8927519,22.5707059 L28.7178596,22.8278623 L29.2692918,23.2636246 L29.1728516,23.6444312 L27.3138841,23.6444312 L26.8927519,22.5707059 Z M23.7310861,21.749657 L26.7358476,22.5438254 L27.1473056,23.5935076 L25.6653314,23.0237911 L23.7310861,21.749657 Z M39.8456655,22.078196 L41.2006651,23.0088575 L39.8881415,23.459852 L39.8456655,22.078196 Z M38.0530572,20.5110649 L39.7058423,21.9773943 L39.7501323,23.4144539 L37.5846119,21.7923671 L38.0530572,20.5110649 Z M11.7117376,21.3206149 L11.083516,22.0230911 L10.2646814,23.0249858 L9.32098859,22.2588925 L9.03469126,22.0207017 L11.7117376,21.3206149 Z M8.87808934,22.0668465 L10.0494294,23.0231937 L8.36051697,22.8082993 L8.3550752,22.4455624 L8.87808934,22.0668465 Z M11.9038621,21.3107587 L12.9074144,22.1634668 L10.471015,22.9961639 L11.9038621,21.3107587 Z M40.8876124,21.2001008 L42.0120928,22.729898 L41.3602902,22.9542005 L39.8895019,21.9437937 L40.8876124,21.2001008 Z M24.3416219,20.1310049 L25.2110952,21.2205598 L25.2178974,21.2337014 L26.5189328,22.3465527 L23.4552188,21.5374506 L24.3416219,20.1310049 Z M13.7401557,19.1559907 L13.0083894,22.0710279 L11.9921397,21.2078663 L13.7401557,19.1559907 Z M16.7462777,17.4529639 L15.4951251,19.9583726 L13.167561,21.9887438 L13.9315245,18.9372136 L16.7462777,17.4529639 Z M40.7207316,19.7679693 L40.8310785,21.0730159 L39.7768876,21.8591202 L38.1634041,20.4269887 L40.7207316,19.7679693 Z M36.4909682,19.2857636 L37.9419545,20.4163859 L37.4981483,21.6307856 L36.4909682,19.2857636 Z M23.5596705,19.1503159 L24.2518328,20.018107 L23.3622553,21.4290328 L22.6350238,19.5974277 L23.5596705,19.1503159 Z M24.8342529,19.3499781 L25.145794,20.9220373 L24.4184113,20.0091468 L24.8342529,19.3499781 Z M39.2045953,18.3352405 L40.6436399,19.6482019 L38.038697,20.3197655 L36.4711662,19.0989444 L39.2045953,18.3352405 Z M25.9055249,18.0168563 L24.8132416,19.1286622 L24.3287733,19.8963982 L23.6855869,19.0896856 L25.9055249,18.0168563 Z M16.9439952,17.3624663 L21.1016552,17.4681961 L18.0207089,18.4369382 L15.7162724,19.8203862 L16.9439952,17.3624663 Z M41.9381755,17.5800487 L40.7659285,19.5759233 L39.3589298,18.2928291 L41.9381755,17.5800487 Z M22.7955559,18.1912806 L23.4730557,19.0415994 L22.6326052,19.4483904 L22.7955559,18.1912806 Z M36.0309878,16.4542052 L39.0516212,18.2378735 L36.3809236,18.9838064 L36.0309878,16.4542052 Z M26.2855415,16.8660737 L28.0204066,17.0003267 L26.1992291,17.7246059 L23.5991233,18.980969 L22.8292646,18.0150643 L23.2435946,17.1958074 L24.0597083,17.0628984 L25.3599879,16.9513445 L26.2855415,16.8660737 Z M33.6307157,17.155636 L36.0583478,18.9576726 L33.0037034,18.4520212 L31.4907414,17.9772823 L33.6307157,17.155636 Z M35.8872345,16.4141832 L36.2338448,18.9191439 L33.7862595,17.1024724 L35.8872345,16.4141832 Z M14.9231351,17.0082415 L16.6666163,17.3418579 L14.0140579,18.7406875 L14.9231351,17.0082415 Z M38.367168,14.5627164 L41.4490212,16.2543937 L41.9866979,17.4260834 L39.2721639,18.1764964 L38.367168,14.5627164 Z M38.2228101,14.5488282 L39.1169224,18.1195994 L36.0616733,16.3156215 L38.2228101,14.5488282 Z M30.4199229,14.9070851 L33.4982994,17.0617037 L31.2844078,17.9115745 L31.2162346,17.8879794 L30.4199229,14.9070851 Z M30.2722394,14.8831913 L31.0603885,17.8339198 L28.4356436,16.9238667 L30.2722394,14.8831913 Z M44.5199909,14.999076 L43.2369435,16.4903445 L42.1077772,17.3638103 L41.5927745,16.2408042 L44.5199909,14.999076 Z M18.5243746,15.3452367 L21.2913612,17.3378259 L19.28078,17.2869023 L17.0105056,17.22896 L17.6047162,16.03935 L18.5243746,15.3452367 Z M22.8747638,15.2765421 L25.330814,16.8148515 L24.0368831,16.9295414 L21.6431109,17.3205029 L22.8747638,15.2765421 Z M21.0658302,14.1916167 L21.4234752,17.2656966 L18.63714,15.2595178 L19.1831305,14.8440653 L21.0658302,14.1916167 Z M17.4112312,16.1210368 L16.8616129,17.2219412 L15.1781422,16.8939995 L17.4112312,16.1210368 Z M21.2082231,14.2334307 L22.758824,15.2041142 L21.5539264,17.2043195 L21.2082231,14.2334307 Z M33.4299751,14.2736021 L35.8078754,16.2978505 L33.6990401,16.9889771 L33.4299751,14.2736021 Z M33.2842567,14.1938567 L33.5564961,16.9368589 L30.4729801,14.7786562 L33.2842567,14.1938567 Z M30.0417202,14.9362056 L28.2876578,16.885786 L26.285995,16.731074 L25.9480009,16.7606425 L30.0417202,14.9362056 Z M26.5533973,13.7352461 L30.1089865,14.7580478 L25.6505177,16.7451116 L26.5533973,13.7352461 Z M23.8270728,12.9149439 L25.3979291,16.6971748 L22.9361348,15.1557294 L23.8270728,12.9149439 Z M23.9442219,12.8408732 L26.4232484,13.6941787 L25.5330663,16.6617821 L25.5324616,16.6644702 L23.9442219,12.8408732 Z M33.544101,14.192662 L38.0869171,14.4844644 L35.9448265,16.2363241 L33.544101,14.192662 Z M42.3413196,13.9444657 L41.4671605,16.1095379 L38.4753987,14.4675894 L42.3413196,13.9444657 Z M42.4858287,13.9508871 L44.5861991,14.8242036 L41.6263321,16.0796707 L42.4858287,13.9508871 Z M23.697982,12.8711884 L22.8183811,15.0819574 L21.2612803,14.1067939 L23.697982,12.8711884 Z M9.27987303,13.3784826 L10.4052604,14.7783575 L7.90507142,14.9509898 L7.27095458,14.1551787 L9.27987303,13.3784826 Z M7.12841055,14.194454 L7.70100522,14.9129092 L4.96349482,14.3006319 L7.12841055,14.194454 Z M9.44735848,13.3698211 L13.314791,13.498698 L10.5594437,14.7532691 L9.44735848,13.3698211 Z M44.6291286,12.0853828 L44.6900461,14.7204152 L42.5762225,13.8420213 L44.6291286,12.0853828 Z M29.4993576,11.1421771 L33.1894793,14.075732 L30.356738,14.6647129 L29.4993576,11.1421771 Z M20.8623687,12.4425943 L21.0496561,14.0543769 L19.3247676,14.6520193 L20.8623687,12.4425943 Z M29.3469881,11.094539 L30.2119265,14.6469419 L26.6410702,13.6198094 L29.3469881,11.094539 Z M45.9061295,10.9926919 L45.3970221,13.2773821 L44.8223112,14.5264278 L44.7630565,11.9703942 L45.9061295,10.9926919 Z M35.7105283,12.6592808 L38.0343134,14.3458807 L33.5530194,14.0581103 L35.7105283,12.6592808 Z M39.6378203,12.7951764 L42.1872874,13.8293277 L38.4203764,14.3388619 L39.6378203,12.7951764 Z M37.5896002,11.9642714 L39.5067644,12.7417142 L38.2500189,14.3349791 L35.8554909,12.596709 L37.5498451,11.9789063 L37.5896002,11.9642714 Z M4.62958204,12.6876546 L6.93386743,14.0690119 L4.53465347,14.1859419 L4.62958204,12.6876546 Z M1.9381755,12.3031146 L4.49640995,12.6310563 L4.40148137,14.1279996 L1.9381755,12.3031146 Z M7.5899025,12.1162953 L9.16242159,13.2790248 L7.16680523,14.0503449 L4.75973093,12.6079092 L7.5899025,12.1162953 Z M32.6794649,11.0424207 L34.5382813,11.6349857 L35.600786,12.5687832 L33.3890107,14.0031547 L32.6794649,11.0424207 Z M20.9875293,12.3364165 L23.6124254,12.7627706 L21.1802585,13.9955386 L20.9875293,12.3364165 Z M32.5302698,11.0050868 L33.2324087,13.9364016 L29.5776585,11.0310712 L32.5302698,11.0050868 Z M42.7373592,10.8835273 L42.3912025,13.7658599 L39.7445393,12.692732 L41.1867584,11.4571266 C41.7289698,11.2989798 42.2503212,11.1061872 42.7373592,10.8835273 L42.7373592,10.8835273 Z M44.575769,9.77426009 L44.6251984,11.9105104 L42.5366185,13.6970161 L42.8830776,10.8157288 C43.5239967,10.5110835 44.0932658,10.1608908 44.575769,9.77426009 L44.575769,9.77426009 Z M25.3856851,10.7973605 L26.389842,13.5379733 L26.3904467,13.5399147 L23.8807346,12.6763051 L23.474265,11.1284382 L25.3856851,10.7973605 Z M25.5939838,10.4865924 L29.2367924,11.0119562 L26.5614088,13.5082555 L26.5343511,13.5333439 L25.5034389,10.7223939 L25.5939838,10.4865924 Z M10.0941728,11.4847537 L13.3382208,13.3641463 L13.0774696,13.3556342 L9.40049883,13.233328 L10.0941728,11.4847537 Z M10.3160759,11.4566786 L12.5494672,11.4798257 L13.4428237,13.268422 L10.3160759,11.4566786 Z M14.3275641,10.96163 L13.5912629,13.2605072 L12.688988,11.4542892 L14.3157736,10.9650647 L14.3275641,10.96163 Z M16.8478573,10.5663378 L13.7434812,13.232432 L14.4837125,10.920264 L16.8478573,10.5663378 Z M9.94648931,11.4868444 L9.27080342,13.1903193 L7.76056232,12.0738839 L9.94648931,11.4868444 Z M23.343058,11.1671162 L23.7313884,12.6452432 L21.1427708,12.2251612 L21.1332477,12.2236679 L23.343058,11.1671162 Z M40.8785428,11.5423974 L39.6030534,12.6352377 L37.8881415,11.939631 L39.3952082,11.8385305 C39.8996297,11.7681933 40.3972489,11.6688849 40.8785428,11.5423974 L40.8785428,11.5423974 Z M34.7775678,11.6642555 L37.2928728,11.9288788 L35.7276094,12.4991927 L34.7775678,11.6642555 Z M5.88814149,10.7238872 L7.4499282,12.0036961 L4.75685889,12.4709682 L4.73373139,12.4750002 L5.88814149,10.7238872 Z M2.12576525,10.7480796 L4.33300582,12.4738055 L1.77431789,12.1457145 L2.12576525,10.7480796 Z M3.94905903,10.1653709 L4.50714232,12.4378156 L2.23097272,10.6584781 L3.94905903,10.1653709 Z M4.0937193,10.1825445 L5.7647948,10.6626595 L4.62807044,12.3594142 L4.0937193,10.1825445 Z M0.458619908,10.3796679 L2.0015116,10.6810278 L1.65883153,12.0441661 L0.458619908,10.3796679 Z M6.07376616,10.7002921 L8.61733807,10.8170728 L9.8585141,11.3708104 L7.62361122,11.9706928 L6.07376616,10.7002921 Z M44.712569,9.78396692 L45.9126294,10.808262 L44.7591263,11.7952231 L44.712569,9.78396692 Z M11.8710604,10.1918033 L12.4788754,11.3440793 L10.0748243,11.3191402 L8.85707807,10.7757068 L11.8710604,10.1918033 Z M15.528078,9.36269029 L14.3910513,10.8013926 L12.62671,11.3318338 L12.0095231,10.1622348 L15.528078,9.36269029 Z M27.4375331,9.29056104 L32.1685436,10.8732231 L29.4103242,10.8977142 L27.4375331,9.29056104 Z M27.0847253,9.17811109 L29.1538055,10.8636656 L25.574333,10.3471127 L24.8942635,9.82473563 L24.8666012,9.35611951 L27.0847253,9.17811109 Z M18.1747411,8.76131453 L17.0309123,10.4026656 L14.590885,10.7679413 L15.7395511,9.31460412 L18.1747411,8.76131453 Z M45.9647797,8 L46,8.55523096 L45.9552566,10.6663929 L44.7455219,9.63373498 C45.3698133,9.09985906 45.7879223,8.53895334 45.9647797,8 L45.9647797,8 Z M2.39090016,9.69302135 L3.74726022,10.0826388 L2.17972942,10.5324386 L2.39090016,9.69302135 Z M0.241100446,8.67708907 L2.26211171,9.64523385 L2.04368528,10.5136222 L0,8.96336603 L0.241100446,8.67708907 Z M0.0288715894,9.1557107 L1.80893357,10.5058568 L0.356435644,10.2222679 L0.0288715894,9.1557107 Z M18.352959,8.74384223 L19.8781649,9.52755714 L17.2390598,10.3420353 L18.3237851,8.78595496 L18.352959,8.74384223 Z M24.7304059,9.36746904 L24.7544403,9.77246806 L23.4523468,9.47006281 L24.7304059,9.36746904 Z M21.9762679,8.42605538 L22.8650896,9.37568251 L20.3085179,9.46647875 L21.9762679,8.42605538 Z M21.7111329,8.43173015 L20.0541153,9.46588141 L18.5716877,8.70396954 L21.7111329,8.43173015 Z M22.1558461,8.41918593 L24.6849067,8.59331162 L24.7222432,9.23232003 L23.0433074,9.36746904 L22.1558461,8.41918593 Z M24.823067,8.61765337 L26.6855113,9.07491997 L24.858892,9.22156784 L24.823067,8.61765337 Z" id="Combined-Shape" fill="#006F63"></path>
                        </g>
                    </g>
                </g>
            </g>
        </g>
    </g>
</svg>