<?xml version="1.0" encoding="UTF-8"?>
<svg width="10px" height="10px" viewBox="0 0 10 10" version="1.1" xmlns="http://www.w3.org/2000/svg" xmlns:xlink="http://www.w3.org/1999/xlink">
    <title>2F2A954F-914B-485B-86A0-E11BD1A04710</title>
    <defs>
        <path d="M11.8954545,10 L14.7383523,7.15710227 C15.0872159,6.80823864 15.0872159,6.24261364 14.7383523,5.89346591 L14.1065341,5.26164773 C13.7576705,4.91278409 13.1920455,4.91278409 12.8428977,5.26164773 L10,8.10454545 L7.15710227,5.26164773 C6.80823864,4.91278409 6.24261364,4.91278409 5.89346591,5.26164773 L5.26164773,5.89346591 C4.91278409,6.24232955 4.91278409,6.80795455 5.26164773,7.15710227 L8.10454545,10 L5.26164773,12.8428977 C4.91278409,13.1917614 4.91278409,13.7573864 5.26164773,14.1065341 L5.89346591,14.7383523 C6.24232955,15.0872159 6.80823864,15.0872159 7.15710227,14.7383523 L10,11.8954545 L12.8428977,14.7383523 C13.1917614,15.0872159 13.7576705,15.0872159 14.1065341,14.7383523 L14.7383523,14.1065341 C15.0872159,13.7576705 15.0872159,13.1920455 14.7383523,12.8428977 L11.8954545,10 Z" id="path-1"></path>
    </defs>
    <g id="Page-1" stroke="none" stroke-width="1" fill="none" fill-rule="evenodd">
        <g id="123-FE-TASK-Audit-list" transform="translate(-505.000000, -152.000000)">
            <g id="drop/checkbox-search" transform="translate(270.000000, 125.000000)">
                <g id="drop-w-search">
                    <g id="search/inactive" transform="translate(12.000000, 13.000000)">
                        <g id="icon/close" transform="translate(218.000000, 9.000000)">
                            <mask id="mask-2" fill="white">
                                <use xlink:href="#path-1"></use>
                            </mask>
                            <use id="icn-close" fill="#9B9B9B" fill-rule="evenodd" xlink:href="#path-1"></use>
                        </g>
                    </g>
                </g>
            </g>
        </g>
    </g>
</svg>