<?xml version="1.0" encoding="UTF-8"?>
<svg width="14px" height="14px" viewBox="0 0 14 14" version="1.1" xmlns="http://www.w3.org/2000/svg" xmlns:xlink="http://www.w3.org/1999/xlink">
    <title>7CB10BB2-7220-400E-9383-2FB942416187</title>
    <defs>
        <path d="M16.8096038,15.1038961 L14.0832325,12.3779904 C13.9601767,12.2549556 13.7933676,12.1866029 13.6183548,12.1866029 L13.1726191,12.1866029 C13.9273618,11.2214627 14.3758321,10.0075188 14.3758321,8.68694463 C14.3758321,5.54545455 11.8299427,3 8.68791604,3 C5.54588934,3 3,5.54545455 3,8.68694463 C3,11.8284347 5.54588934,14.3738893 8.68791604,14.3738893 C10.0087158,14.3738893 11.2228671,13.9254956 12.1881721,13.1708817 L12.1881721,13.6165414 C12.1881721,13.7915243 12.2565364,13.9583049 12.3795923,14.0813397 L15.1059636,16.8072454 C15.3630137,17.0642515 15.7786691,17.0642515 16.0329845,16.8072454 L16.8068693,16.0334928 C17.0639193,15.7764867 17.0639193,15.3609023 16.8096038,15.1038961 Z M8.68791604,12.1866029 C6.7545715,12.1866029 5.18766001,10.6226931 5.18766001,8.68694463 C5.18766001,6.75393028 6.75183693,5.1872864 8.68791604,5.1872864 C10.6212606,5.1872864 12.1881721,6.75119617 12.1881721,8.68694463 C12.1881721,10.619959 10.6239952,12.1866029 8.68791604,12.1866029 Z" id="path-1"></path>
    </defs>
    <g id="Symbols" stroke="none" stroke-width="1" fill="none" fill-rule="evenodd">
        <g id="icon/search" transform="translate(-3.000000, -3.000000)">
            <mask id="mask-2" fill="white">
                <use xlink:href="#path-1"></use>
            </mask>
            <use id="icn-search" fill="#000000" xlink:href="#path-1"></use>
        </g>
    </g>
</svg>